<?xml version="1.0" standalone="no"?>
<!DOCTYPE svg PUBLIC "-//W3C//DTD SVG 20010904//EN"
 "http://www.w3.org/TR/2001/REC-SVG-20010904/DTD/svg10.dtd">
<svg version="1.0" xmlns="http://www.w3.org/2000/svg"
 width="373.000000pt" height="378.000000pt" viewBox="0 0 373.000000 378.000000"
 preserveAspectRatio="xMidYMid meet">

<g transform="translate(0.000000,378.000000) scale(0.100000,-0.100000)"
fill="#000000" stroke="none">
<path d="M273 3421 c-63 -39 -63 -38 -63 -484 0 -391 1 -404 20 -422 17 -15
24 -16 45 -7 l25 12 0 399 c0 350 2 402 16 415 13 14 47 16 220 16 123 0 213
-4 225 -10 17 -10 19 -22 19 -135 l0 -125 -95 0 c-85 0 -95 -2 -105 -21 -9
-16 -8 -26 5 -45 14 -22 21 -24 105 -24 l90 0 0 -100 0 -100 -51 0 c-66 0 -89
-13 -89 -50 0 -37 23 -50 89 -50 l51 0 0 -100 0 -100 -85 0 c-72 0 -88 -3
-105 -20 -25 -25 -25 -35 0 -60 17 -17 33 -20 105 -20 l85 0 0 -100 0 -100
-59 0 c-66 0 -84 -13 -79 -57 3 -27 5 -28 71 -31 l67 -3 0 -104 0 -105 -88 0
c-76 0 -91 -3 -107 -20 -15 -17 -16 -24 -7 -45 11 -24 15 -25 107 -25 l95 0 0
-105 0 -105 -58 0 c-62 0 -82 -11 -82 -45 0 -34 20 -45 82 -45 l58 0 0 -105 0
-105 -89 0 c-91 0 -121 -11 -121 -44 0 -33 35 -46 123 -46 l86 0 3 -157 3
-158 -235 -237 c-129 -131 -238 -238 -242 -238 -5 0 -8 439 -8 975 0 953 0
975 -19 985 -27 14 -37 13 -55 -6 -14 -14 -16 -120 -16 -1022 0 -981 1 -1008
20 -1039 41 -68 -78 -63 1582 -63 1473 0 1504 0 1535 20 61 37 64 53 61 326
l-3 246 -37 34 -38 34 -1214 0 c-1091 0 -1216 2 -1230 16 -14 14 -16 139 -16
1230 l0 1214 -34 38 -34 37 -249 3 c-232 2 -250 1 -280 -17z m738 -2611 l129
0 0 -87 c0 -88 13 -123 46 -123 33 0 44 30 44 121 l0 89 105 0 105 0 0 -58 c0
-62 11 -82 45 -82 34 0 45 20 45 82 l0 58 105 0 105 0 0 -95 c0 -92 1 -96 25
-107 21 -9 28 -8 45 7 17 16 20 31 20 107 l0 88 100 0 100 0 1 -42 c2 -71 11
-93 43 -96 43 -5 56 13 56 79 l0 59 100 0 100 0 0 -85 c0 -72 3 -88 20 -105
11 -11 25 -20 30 -20 6 0 19 9 30 20 17 17 20 33 20 105 l0 85 100 0 100 0 0
-51 c0 -66 13 -89 50 -89 37 0 50 23 50 89 l0 51 100 0 100 0 0 -90 c0 -84 2
-91 24 -105 19 -13 29 -14 45 -6 18 10 21 23 23 104 l3 92 135 3 c118 2 136 0
147 -15 10 -12 13 -73 13 -224 0 -175 -2 -210 -16 -223 -14 -14 -161 -16
-1470 -16 -800 0 -1454 3 -1454 7 0 17 476 483 488 478 8 -3 72 -5 143 -5z"/>
<path d="M1260 3053 c-8 -3 -25 -15 -37 -26 -21 -18 -23 -30 -23 -112 0 -96 8
-115 45 -115 35 0 45 20 45 92 l0 68 61 0 c76 0 99 12 99 50 0 19 -7 33 -19
40 -20 10 -144 13 -171 3z"/>
<path d="M2858 3050 c-25 -15 -24 -66 1 -80 11 -5 47 -10 80 -10 l61 0 0 -68
c0 -72 10 -92 45 -92 37 0 45 19 45 111 0 78 -3 91 -24 116 -23 26 -30 28
-108 31 -46 1 -91 -2 -100 -8z"/>
<path d="M1807 2698 c-227 -131 -302 -180 -317 -204 -19 -30 -20 -51 -20 -384
0 -388 -1 -384 63 -426 18 -11 151 -90 297 -175 246 -143 269 -154 315 -154
46 0 70 12 330 163 154 90 294 176 310 193 l30 29 3 361 c3 345 2 362 -17 393
-16 25 -89 72 -318 204 -252 145 -304 172 -338 172 -34 0 -86 -27 -338 -172z
m592 -59 c135 -78 254 -147 263 -154 15 -10 4 -19 -78 -66 -97 -55 -120 -83
-94 -114 21 -26 58 -17 146 35 47 28 87 50 89 50 3 0 5 -135 5 -299 0 -270 -2
-301 -17 -319 -10 -10 -65 -46 -123 -79 -58 -33 -169 -96 -247 -141 -78 -45
-144 -82 -147 -82 -4 0 -5 138 -4 307 l3 308 87 50 c88 50 105 69 93 104 -12
39 -41 35 -134 -18 -49 -28 -92 -51 -96 -51 -11 0 -535 303 -532 307 10 9 524
303 531 303 5 0 120 -64 255 -141z m-529 -423 c113 -65 211 -123 218 -129 9
-7 12 -82 12 -313 0 -167 -3 -304 -7 -304 -9 0 -495 281 -515 298 -16 14 -18
42 -18 319 l0 305 53 -29 c28 -16 144 -82 257 -147z"/>
<path d="M1218 1409 c-15 -8 -18 -25 -18 -103 0 -85 2 -94 25 -116 20 -18 39
-24 97 -27 40 -3 85 0 99 5 32 13 42 44 22 71 -12 18 -25 21 -84 21 l-69 0 0
70 c0 58 -3 71 -19 80 -24 12 -31 12 -53 -1z"/>
<path d="M3018 1409 c-15 -8 -18 -24 -18 -79 l0 -70 -61 0 c-76 0 -99 -12 -99
-51 0 -40 34 -52 129 -46 66 4 77 7 98 31 20 24 23 38 23 111 0 104 -21 134
-72 104z"/>
</g>
</svg>
