<?xml version="1.0" standalone="no"?>
<!DOCTYPE svg PUBLIC "-//W3C//DTD SVG 20010904//EN"
 "http://www.w3.org/TR/2001/REC-SVG-20010904/DTD/svg10.dtd">
<svg version="1.0" xmlns="http://www.w3.org/2000/svg"
 width="382.000000pt" height="428.000000pt" viewBox="0 0 382.000000 428.000000"
 preserveAspectRatio="xMidYMid meet">

<g transform="translate(0.000000,428.000000) scale(0.100000,-0.100000)"
fill="#000000" stroke="none">
<path d="M1420 3503 c-30 -15 -73 -46 -96 -69 -31 -31 -46 -39 -57 -32 -35 19
-127 29 -181 19 -173 -32 -294 -168 -300 -338 -2 -60 -4 -63 -42 -91 -48 -36
-94 -86 -122 -133 -26 -44 -52 -140 -52 -194 0 -38 -3 -43 -52 -75 -100 -66
-142 -197 -103 -315 16 -45 16 -45 -15 -90 -62 -90 -75 -131 -75 -241 0 -96 2
-103 38 -176 25 -52 53 -91 88 -122 28 -25 55 -46 59 -46 5 0 -1 -26 -12 -57
-42 -121 -2 -282 92 -367 l41 -37 2 -112 c2 -121 18 -167 57 -167 34 0 53 29
43 69 -4 20 -8 74 -7 121 0 74 4 93 32 151 58 121 180 211 307 225 76 9 95 19
95 49 0 42 -34 55 -114 43 -135 -18 -260 -97 -335 -210 -24 -34 -48 -63 -54
-63 -20 0 -75 104 -81 153 -4 27 -1 69 6 97 l13 50 73 -4 c79 -3 102 6 102 44
0 31 -16 41 -75 49 -198 28 -321 214 -267 403 22 77 125 184 190 199 59 14 79
56 42 89 -19 17 -22 17 -77 -4 -32 -12 -62 -23 -68 -24 -19 -4 -29 70 -16 115
15 50 75 114 117 124 49 11 53 20 51 102 -2 100 21 166 80 232 25 27 51 50 58
50 7 0 23 -15 34 -34 30 -48 105 -115 156 -137 62 -27 157 -36 174 -16 16 20
11 57 -9 68 -8 5 -41 13 -73 19 -194 38 -275 287 -138 427 75 78 194 105 286
64 70 -31 84 -28 139 35 31 36 68 65 105 82 61 29 75 56 46 86 -23 22 -43 20
-105 -11z"/>
<path d="M1672 3514 c-39 -27 -24 -65 39 -91 41 -18 97 -71 127 -122 l27 -46
3 -737 2 -738 -95 0 c-109 0 -145 13 -175 63 -11 18 -20 49 -20 69 0 28 -6 41
-24 53 -66 44 -95 -56 -45 -156 l18 -37 -28 -12 c-16 -6 -42 -26 -59 -43 -70
-73 -71 -186 -1 -175 24 3 35 18 44 61 3 16 17 40 30 53 24 23 28 24 190 24
l166 0 -3 -482 -3 -483 -24 -45 c-58 -110 -137 -172 -248 -195 -121 -25 -238
12 -323 101 -59 62 -88 122 -97 197 -3 28 -10 60 -15 69 -10 20 -63 25 -74 7
-11 -19 -5 -117 11 -162 8 -23 12 -43 9 -46 -8 -8 -126 20 -164 39 -20 10 -56
35 -79 54 -51 43 -87 47 -103 11 -15 -34 5 -62 83 -114 73 -49 170 -80 259
-85 63 -3 67 -5 116 -52 171 -164 431 -165 609 -2 63 57 119 160 135 247 6 29
10 175 10 322 l0 269 50 0 50 0 0 -183 c0 -129 4 -187 12 -195 7 -7 44 -12 95
-12 l83 0 0 -103 0 -103 -30 -17 c-84 -50 -79 -196 9 -242 41 -21 109 -19 148
5 46 28 66 72 60 134 -4 43 -10 55 -46 88 l-41 39 0 127 c0 87 -4 134 -12 145
-10 13 -33 17 -98 19 l-85 3 -3 147 -3 148 51 0 50 0 0 -84 c0 -89 12 -116 49
-116 37 0 51 32 51 118 l0 82 50 0 50 0 0 -83 c0 -51 5 -88 12 -95 7 -7 44
-12 95 -12 l83 0 0 -101 0 -101 -41 -37 c-68 -60 -71 -153 -7 -213 89 -83 238
-15 238 108 0 41 -31 95 -67 116 l-33 20 0 137 c0 93 -4 141 -12 149 -7 7 -44
12 -95 12 l-83 0 0 50 0 50 69 0 c99 0 114 15 121 117 l5 78 98 3 97 3 0 -59
c0 -53 -3 -60 -25 -72 -37 -20 -65 -71 -65 -119 0 -84 56 -141 140 -141 139 0
191 160 82 252 -28 23 -30 30 -34 116 -2 50 -8 95 -12 99 -4 5 -69 10 -144 13
l-137 5 -3 48 -3 47 80 0 c68 0 84 3 101 20 48 48 8 80 -103 80 l-78 0 3 48 3
47 109 3 110 3 91 -91 91 -91 -4 -57 c-3 -48 0 -63 20 -92 28 -41 70 -64 118
-64 48 0 90 23 118 64 20 29 23 44 20 88 -7 85 -73 139 -158 129 l-47 -6 -103
104 -104 104 -131 3 -130 3 0 45 0 45 245 3 244 2 24 -30 c49 -63 132 -80 196
-40 88 54 84 185 -7 240 -62 38 -162 15 -189 -45 l-11 -25 -254 0 -254 0 3 48
3 47 85 3 c85 3 110 13 110 48 0 32 -31 44 -116 44 l-84 0 0 69 c0 65 -2 71
-31 95 -26 22 -40 26 -95 26 l-64 0 0 50 0 50 54 0 c47 0 56 -3 70 -25 54 -82
174 -86 235 -9 82 104 -25 258 -154 223 -20 -6 -48 -26 -68 -49 l-34 -40 -77
0 c-113 0 -116 -3 -116 -110 l0 -90 -50 0 -50 0 0 145 0 145 79 0 c106 0 111
6 111 118 0 86 1 87 29 104 59 33 81 121 47 186 -50 97 -204 95 -250 -2 -19
-40 -21 -88 -5 -119 17 -32 61 -77 76 -77 9 0 13 -16 13 -55 l0 -55 -78 0
c-125 0 -122 5 -122 -211 l0 -179 -50 0 -50 0 0 83 c0 87 -8 107 -45 107 -37
0 -45 -20 -45 -107 l0 -83 -50 0 -50 0 0 294 c0 161 -5 318 -10 347 -22 117
-104 226 -206 274 -62 30 -54 29 -82 9z m862 -260 c20 -20 20 -48 0 -68 -23
-23 -51 -20 -70 9 -15 23 -15 27 0 50 19 29 47 32 70 9z m294 -476 c21 -21 15
-67 -12 -79 -34 -16 -66 3 -66 39 0 33 16 52 45 52 12 0 26 -5 33 -12z m-178
-823 l0 -535 -340 0 -340 0 0 50 0 49 266 3 266 3 24 28 c24 28 24 31 24 231
0 212 -3 226 -45 226 -42 0 -45 -15 -45 -207 l0 -183 -245 0 -245 0 0 340 0
340 245 0 244 0 3 -81 c3 -93 16 -112 62 -91 25 11 26 14 26 110 0 91 -2 101
-25 126 l-24 26 -266 0 -265 0 0 50 0 50 340 0 340 0 0 -535z m760 235 c24
-24 24 -29 4 -58 -17 -24 -53 -29 -72 -10 -17 17 -15 54 4 72 21 21 40 20 64
-4z m-100 -488 c30 -24 21 -69 -15 -78 -35 -9 -53 1 -61 32 -6 21 -2 31 16 46
12 10 26 18 30 18 4 0 18 -8 30 -18z m-290 -392 c25 -25 25 -42 0 -65 -45 -40
-105 20 -65 65 23 25 40 25 65 0z m-285 -494 c18 -27 11 -52 -17 -67 -42 -23
-90 45 -56 79 20 20 56 14 73 -12z m-397 -182 c27 -19 28 -45 2 -69 -45 -40
-105 20 -65 65 22 24 34 25 63 4z"/>
<path d="M1555 2933 c-14 -13 -16 -27 -10 -70 13 -105 -41 -197 -143 -245 -40
-20 -47 -27 -47 -52 0 -41 24 -53 72 -37 93 31 171 113 199 208 38 131 -9 259
-71 196z"/>
<path d="M942 2108 c-7 -7 -12 -24 -12 -39 0 -25 6 -29 54 -43 61 -18 100 -56
111 -108 9 -43 22 -58 49 -58 51 0 60 55 22 135 -27 59 -46 77 -106 104 -51
23 -100 27 -118 9z"/>
<path d="M1481 1281 c-7 -5 -17 -32 -22 -61 -10 -66 -31 -97 -77 -116 -75 -32
-87 -40 -90 -60 -2 -11 7 -29 18 -39 19 -17 25 -18 68 -6 97 26 163 104 170
204 4 50 2 63 -14 74 -21 15 -34 16 -53 4z"/>
</g>
</svg>
