<?xml version="1.0" standalone="no"?>
<!DOCTYPE svg PUBLIC "-//W3C//DTD SVG 20010904//EN"
 "http://www.w3.org/TR/2001/REC-SVG-20010904/DTD/svg10.dtd">
<svg version="1.0" xmlns="http://www.w3.org/2000/svg"
 width="286.000000pt" height="282.000000pt" viewBox="0 0 286.000000 282.000000"
 preserveAspectRatio="xMidYMid meet">

<g transform="translate(0.000000,282.000000) scale(0.100000,-0.100000)"
fill="#000000" stroke="none">
<path d="M543 2601 c-145 -36 -259 -161 -284 -310 -12 -73 -12 -333 0 -364 16
-42 51 -67 94 -67 92 0 101 22 107 251 5 185 5 186 33 222 47 62 66 67 252 67
191 0 222 8 250 66 13 28 14 41 5 68 -22 68 -31 71 -239 73 -102 1 -200 -2
-218 -6z"/>
<path d="M1960 2603 c-54 -21 -79 -85 -55 -137 28 -58 59 -66 250 -66 186 0
205 -5 252 -67 28 -36 28 -37 33 -222 6 -229 15 -251 107 -251 43 0 78 25 94
67 12 31 12 291 0 364 -20 122 -95 223 -207 280 l-68 34 -195 2 c-108 1 -203
0 -211 -4z"/>
<path d="M149 1481 c-23 -23 -29 -38 -29 -71 0 -33 6 -48 29 -71 l29 -29 1272
0 1272 0 29 29 c41 41 41 101 0 142 l-29 29 -1272 0 -1272 0 -29 -29z"/>
<path d="M291 939 c-12 -11 -26 -32 -32 -46 -12 -31 -12 -291 0 -364 20 -122
95 -223 208 -280 l68 -34 206 0 c230 0 236 2 259 71 9 27 8 40 -5 68 -28 58
-59 66 -250 66 -186 0 -205 5 -252 67 -28 36 -28 37 -33 222 -5 192 -11 220
-50 241 -33 17 -94 12 -119 -11z"/>
<path d="M2488 949 c-37 -21 -43 -51 -48 -240 -5 -185 -5 -186 -33 -222 -47
-62 -66 -67 -252 -67 -191 0 -222 -8 -250 -66 -13 -28 -14 -41 -5 -68 23 -69
29 -71 259 -71 l206 0 68 34 c113 57 188 158 208 280 12 73 12 333 0 364 -17
43 -51 67 -95 67 -23 0 -49 -5 -58 -11z"/>
</g>
</svg>
