<?xml version="1.0" standalone="no"?>
<!DOCTYPE svg PUBLIC "-//W3C//DTD SVG 20010904//EN" "http://www.w3.org/TR/2001/REC-SVG-20010904/DTD/svg10.dtd">
<svg version="1.0" xmlns="http://www.w3.org/2000/svg"
    width="357.000000pt" height="378.000000pt" viewBox="0 0 357.000000 378.000000"
    preserveAspectRatio="xMidYMid meet">


    <g transform="translate(0.000000,378.000000) scale(0.100000,-0.100000)"
        fill="#000000" stroke="none">
        <path
            d="M1036 3305 c-21 -7 -54 -28 -73 -47 -72 -69 -67 -16 -73 -802 l-5
-710 -141 -45 c-160 -52 -213 -83 -247 -143 -14 -24 -64 -184 -112 -358 -47
-173 -93 -340 -102 -370 -13 -47 -27 -66 -89 -126 -81 -77 -90 -103 -49 -130
22 -15 27 -15 48 -1 50 33 139 122 158 158 10 21 62 193 114 381 53 189 98
351 101 361 3 10 19 34 36 52 25 29 50 41 155 75 68 22 127 40 129 40 2 0 4
-132 4 -293 0 -215 3 -296 12 -305 23 -23 53 -12 113 41 243 211 474 406 492
415 47 26 115 0 132 -50 18 -52 -3 -87 -161 -264 -321 -358 -285 -309 -312
-417 -55 -217 -120 -294 -300 -353 -122 -40 -146 -56 -224 -142 -72 -80 -87
-113 -60 -140 27 -27 56 -12 130 68 72 80 74 80 178 116 130 45 177 72 236
137 54 60 94 135 124 234 l22 72 441 3 c431 3 443 4 482 25 46 24 75 54 101
103 18 33 19 83 22 1130 2 846 0 1105 -10 1140 -15 58 -87 131 -144 148 -63
18 -1075 16 -1128 -3z m1114 -103 c40 -19 70 -71 70 -119 l0 -33 -615 0 -615
0 0 44 c0 48 33 100 74 116 12 5 253 9 536 9 471 1 518 -1 550 -17z m70 -1162
l0 -910 -327 0 -326 0 19 22 c10 13 41 47 67 77 64 72 90 124 91 186 1 100
-73 183 -172 193 -71 6 -115 -12 -196 -82 -263 -228 -363 -313 -373 -320 -10
-6 -13 171 -13 868 l0 876 615 0 615 0 0 -910z m0 -1042 c0 -49 -30 -101 -70
-120 -32 -16 -74 -18 -427 -18 -216 0 -393 3 -393 6 0 3 32 41 72 85 l72 79
373 0 373 0 0 -32z" />
        <path d="M1583 3180 c-48 -19 -36 -90 16 -90 16 0 34 7 41 14 29 36 -13 93
-57 76z" />
        <path
            d="M1232 2424 c-21 -14 -22 -22 -22 -143 0 -134 5 -151 45 -151 42 0 55
29 55 123 l0 87 89 0 c79 0 92 2 104 21 19 27 10 58 -20 70 -42 16 -225 11
-251 -7z" />
        <path
            d="M1709 2421 c-20 -16 -22 -23 -14 -47 10 -29 12 -29 105 -34 l95 -5 5
-90 c3 -49 9 -96 13 -102 13 -20 65 -16 77 6 5 11 10 74 10 140 0 153 2 151
-156 151 -95 0 -115 -3 -135 -19z" />
        <path
            d="M1400 2267 c-23 -12 -25 -19 -28 -95 l-3 -82 -67 0 c-75 0 -92 -10
-92 -52 0 -36 24 -48 99 -48 l61 0 0 -78 c0 -47 5 -83 12 -90 9 -9 73 -12 225
-12 247 0 233 -6 233 109 l0 71 63 0 c49 0 68 4 80 18 43 47 9 82 -79 82 l-64
0 0 73 c0 115 7 112 -222 115 -143 2 -200 -1 -218 -11z m340 -137 l0 -40 -135
0 -135 0 0 40 0 40 135 0 135 0 0 -40z m0 -180 l0 -40 -135 0 -135 0 0 40 0
40 135 0 135 0 0 -40z" />
        <path
            d="M1222 1938 c-17 -17 -17 -259 0 -276 14 -14 255 -17 277 -3 17 11 18
58 2 74 -7 7 -51 14 -101 15 l-90 4 0 80 c0 43 -5 88 -10 99 -12 22 -59 26
-78 7z" />
        <path
            d="M1912 1938 c-8 -8 -12 -45 -12 -100 l0 -88 -84 0 c-67 0 -88 -4 -107
-19 -20 -16 -22 -23 -14 -47 l10 -29 135 -3 c118 -2 136 0 147 15 16 21 18
235 3 264 -12 22 -59 26 -78 7z" />
        <path
            d="M1482 984 c-25 -17 -29 -56 -8 -73 9 -8 55 -11 137 -9 l124 3 10 29
c8 24 6 31 -14 47 -19 16 -40 19 -125 19 -76 0 -107 -4 -124 -16z" />
    </g>
</svg>