<?xml version="1.0" standalone="no"?>
<!DOCTYPE svg PUBLIC "-//W3C//DTD SVG 20010904//EN" "http://www.w3.org/TR/2001/REC-SVG-20010904/DTD/svg10.dtd">
<svg version="1.0" xmlns="http://www.w3.org/2000/svg"
    width="357.000000pt" height="378.000000pt" viewBox="0 0 357.000000 378.000000"
    preserveAspectRatio="xMidYMid meet">


    <g transform="translate(0.000000,378.000000) scale(0.100000,-0.100000)"
        fill="#000000" stroke="none">
        <path
            d="M1465 3186 c-64 -29 -112 -77 -141 -141 -22 -45 -24 -64 -24 -202 l0
-152 -367 -3 c-354 -3 -370 -4 -415 -25 -70 -32 -141 -108 -167 -177 l-21 -58
2 -896 3 -897 24 -45 c32 -61 86 -116 146 -148 l50 -27 1365 0 1365 0 50 27
c60 32 114 87 146 148 l24 45 3 897 2 896 -21 58 c-26 69 -97 145 -167 177
-45 21 -61 22 -419 25 l-373 3 0 113 c0 62 -5 139 -11 172 -19 103 -92 190
-188 222 -23 8 -155 12 -425 12 -389 0 -391 0 -441 -24z m839 -58 c53 -16 121
-84 135 -134 6 -22 11 -99 11 -171 l0 -133 -59 0 -59 0 -4 134 c-3 126 -5 136
-27 160 l-24 26 -364 0 -364 0 -24 -25 c-24 -23 -25 -29 -25 -160 l0 -135 -65
0 -65 0 0 126 c0 69 5 146 12 172 14 55 76 122 128 139 52 16 739 17 794 1z
m-56 -315 l3 -123 -341 0 -340 0 0 118 c0 65 3 122 7 125 4 4 155 6 337 5
l331 -3 3 -122z m-1340 -1265 l2 -1068 -142 0 c-79 0 -161 5 -183 11 -63 18
-118 62 -150 121 l-30 53 0 875 c0 952 -2 919 57 985 68 78 123 94 313 92
l130 -2 3 -1067z m210 0 l2 -1068 -70 0 -70 0 0 1063 c0 585 3 1067 7 1071 4
4 34 6 68 4 l60 -3 3 -1067z m1530 0 l2 -1068 -730 0 -730 0 0 1063 c0 585 3
1067 7 1070 3 4 331 6 727 5 l721 -3 3 -1067z m210 0 l2 -1068 -70 0 -70 0 0
1063 c0 585 3 1067 7 1071 4 4 34 6 68 4 l60 -3 3 -1067z m423 1050 c57 -25
116 -84 136 -136 17 -44 18 -102 18 -922 l0 -875 -30 -53 c-32 -59 -87 -103
-150 -121 -22 -6 -104 -11 -182 -11 l-143 0 0 1063 c0 585 3 1067 8 1071 14
15 304 1 343 -16z" />
    </g>
</svg>