<?xml version="1.0" standalone="no"?>
<!DOCTYPE svg PUBLIC "-//W3C//DTD SVG 20010904//EN"
 "http://www.w3.org/TR/2001/REC-SVG-20010904/DTD/svg10.dtd">
<svg version="1.0" xmlns="http://www.w3.org/2000/svg"
 width="357.000000pt" height="378.000000pt" viewBox="0 0 357.000000 378.000000"
 preserveAspectRatio="xMidYMid meet">

 
<g transform="translate(0.000000,378.000000) scale(0.100000,-0.100000)"
fill="#000000" stroke="none">
<path d="M1530 3181 c-91 -38 -277 -114 -415 -171 -137 -56 -260 -108 -272
-116 -22 -14 -23 -20 -25 -196 l-3 -181 -138 -61 -139 -61 -159 -185 c-100
-117 -159 -193 -159 -207 0 -28 15 -38 172 -109 l128 -58 2 -405 3 -406 105
-53 c58 -28 349 -169 647 -312 l543 -261 232 112 c128 62 283 135 343 164 346
165 683 328 703 341 l22 14 0 403 0 404 140 63 c77 34 145 69 151 76 6 7 9 22
7 33 -2 11 -74 102 -160 203 l-157 184 -165 73 -166 74 0 167 c0 129 -3 170
-14 179 -21 17 -1008 361 -1036 361 -14 -1 -99 -32 -190 -69z m356 -87 c157
-55 192 -67 513 -180 l165 -58 -222 -74 -221 -73 -213 93 c-117 52 -275 121
-350 154 -76 32 -138 62 -138 65 0 6 286 127 301 129 4 0 78 -25 165 -56z
m-415 -209 c107 -47 263 -116 347 -152 84 -37 149 -70 145 -74 -5 -3 -72 -28
-150 -53 l-142 -47 -323 141 c-178 78 -327 145 -331 150 -5 4 24 21 65 38 132
55 193 80 194 81 0 1 88 -37 195 -84z m-81 -312 l225 -99 3 -242 c1 -133 1
-242 0 -242 -2 0 -158 63 -348 139 l-345 139 -3 255 -2 256 122 -54 c68 -30
224 -98 348 -152z m1278 -59 l-3 -267 -185 -74 c-102 -41 -213 -85 -247 -99
l-63 -24 0 284 0 284 238 80 c130 44 243 81 250 81 10 1 12 -55 10 -265z
m-600 -221 l-3 -287 -123 -48 -122 -48 -48 19 -47 19 -3 260 -2 260 162 55
c90 31 169 56 176 56 10 1 12 -60 10 -286z m787 102 c43 -20 76 -37 74 -39 -2
-2 -33 -16 -69 -31 -36 -15 -71 -29 -77 -32 -10 -4 -13 13 -13 66 0 39 2 71 4
71 2 0 38 -16 81 -35z m-2035 -35 l0 -50 -52 21 c-29 11 -55 22 -57 25 -3 3
90 50 107 53 1 1 2 -21 2 -49z m342 -295 c309 -124 564 -227 566 -230 5 -5
-265 -315 -274 -315 -5 0 -211 94 -899 410 -104 48 -190 93 -190 98 0 14 214
262 226 262 5 0 262 -101 571 -225z m2005 99 c60 -69 108 -130 108 -136 0 -10
-1065 -507 -1087 -508 -9 0 -282 310 -277 314 2 2 51 23 109 46 58 23 170 68
250 101 443 179 766 308 777 308 7 1 61 -55 120 -125z m-2137 -562 c168 -77
330 -152 360 -166 93 -44 91 -45 244 130 l136 155 0 -590 c0 -325 -2 -591 -5
-591 -3 0 -110 50 -237 111 -128 62 -316 152 -418 200 -102 49 -253 122 -337
161 l-152 73 -1 352 0 353 53 -24 c28 -13 189 -87 357 -164z m1990 -164 l-1
-353 -417 -200 c-229 -110 -485 -232 -569 -272 -83 -40 -154 -73 -157 -73 -3
0 -6 266 -6 591 l0 590 137 -155 c108 -123 142 -156 162 -156 23 0 105 36 641
284 113 52 206 95 208 95 1 1 2 -158 2 -351z"/>
<path d="M1332 1238 c-8 -8 -12 -58 -12 -160 0 -142 1 -148 23 -162 34 -23
255 -106 280 -106 43 0 47 16 47 172 0 174 15 154 -163 222 -123 48 -155 54
-175 34z m231 -167 c4 -4 7 -37 5 -73 l-3 -65 -70 26 -70 27 -3 72 -3 71 68
-25 c37 -14 72 -29 76 -33z"/>
<path d="M2120 1074 c-96 -41 -180 -80 -187 -86 -16 -13 -17 -50 -1 -66 7 -7
23 -12 36 -12 23 0 336 129 380 156 24 16 29 53 10 72 -22 22 -63 12 -238 -64z"/>
<path d="M2120 874 c-96 -41 -180 -80 -187 -86 -16 -13 -17 -50 -1 -66 7 -7
23 -12 36 -12 23 0 336 129 380 156 24 16 29 53 10 72 -22 22 -63 12 -238 -64z"/>
</g>
</svg>
